# xmcd
#
# Track frame offsets: 
#        150
#        12232
#        31085
#        46446
#        61646
#        74085
#        88988
#        106281
#        126325
#        142507
#        155683
#        177413
#        189650
#        204080
#        221359
#        235517
#        251591
#        262808
#        274639
#        289549
#        302091
#        314374
#
# Disc length: 4370 seconds
#
# Revision: 4
# Processed by: cddbd v1.5.2PL0 Copyright (c) Steve Scherf et al.
# Submitted via: ExactAudioCopy v1.1
#
DISCID=2f111016
DTITLE=Count Basie - CD1_8 Classic Albums
DYEAR=2015
DGENRE=Jazz
TTITLE0=Kid From Red Bank
TTITLE1=Duet
TTITLE2=After Supper
TTITLE3=Flight Of The Foo Birds
TTITLE4=Double O
TTITLE5=Teddy The Toad
TTITLE6=Whirlybirds
TTITLE7=Midnight Blue
TTITLE8=Splanky
TTITLE9=Fantail
TTITLE10=Lil' Darlin'
TTITLE11=Has Anyone Here Seen Basie
TTITLE12=Cute
TTITLE13=Pensive Miss
TTITLE14=Sloo Foot
TTITLE15=It's Awf'lly Nice To Be With You
TTITLE16=Scoot
TTITLE17=A Little Tempo, Please
TTITLE18=Late Date
TTITLE19=Countdown
TTITLE20=Bag A Bones
TTITLE21=Pony Tail
EXTD=YEAR: 1958
EXTT0=
EXTT1=
EXTT2=
EXTT3=
EXTT4=
EXTT5=
EXTT6=
EXTT7=
EXTT8=
EXTT9=
EXTT10=
EXTT11=
EXTT12=
EXTT13=
EXTT14=
EXTT15=
EXTT16=
EXTT17=
EXTT18=
EXTT19=
EXTT20=
EXTT21=
PLAYORDER=
